<svg xmlns="http://www.w3.org/2000/svg" xmlns:xlink="http://www.w3.org/1999/xlink" width="512"
    height="512" viewBox="0 0 512 512">
    <defs>
        <radialGradient id="radial-gradient" cx="0.833" cy="0.919" r="0.918"
            gradientTransform="translate(0 -0.035) scale(1 1.038)" gradientUnits="objectBoundingBox">
            <stop offset="0" stop-color="#591889" />
            <stop offset="1" stop-color="#191919" />
        </radialGradient>
    </defs>
    <g id="Group_2" data-name="Group 2" transform="translate(-1085 1115)">
        <rect id="Rectangle_1" data-name="Rectangle 1" width="512" height="512" rx="120"
            transform="translate(1085 -1115)" fill="url(#radial-gradient)" />
        <path id="Path_2" data-name="Path 2"
            d="M-846.768,718.095l53.215-53.25V565.38a38.026,38.026,0,0,1-19.392-33.165,38.019,38.019,0,0,1,38.007-38.032,38.02,38.02,0,0,1,38.008,38.032,38.021,38.021,0,0,1-19.4,33.169V627.6l85.1-85.157a38.1,38.1,0,0,1-1.39-10.226,38.019,38.019,0,0,1,38.006-38.032,38.018,38.018,0,0,1,38.006,38.032,38.017,38.017,0,0,1-38.006,38.031,38.005,38.005,0,0,1-10.34-1.424l-85.059,85.115h62.254a37.992,37.992,0,0,1,33.145-19.409,38.019,38.019,0,0,1,38.006,38.033,38.017,38.017,0,0,1-38.006,38.031,37.989,37.989,0,0,1-33.146-19.409h-99.475l-53.127,53.162Z"
            transform="translate(2062.688 -1478.264)" fill="#fff" />
    </g>
</svg>
  